<mxfile host="app.diagrams.net" modified="2020-05-21T08:42:31.329Z" agent="5.0 (Windows NT 10.0; Win64; x64) AppleWebKit/537.36 (KHTML, like Gecko) Chrome/81.0.4044.129 Safari/537.36 OPR/68.0.3618.63 (Edition Campaign 34)" etag="nIAta9nOazdYWHRviuZV" version="13.1.3" type="github">
  <diagram id="G8N1r6jdoabXi4Lfb5Il" name="Page-1">
    <mxGraphModel dx="1062" dy="584" grid="1" gridSize="10" guides="1" tooltips="1" connect="1" arrows="1" fold="1" page="1" pageScale="1" pageWidth="827" pageHeight="1169" math="0" shadow="0">
      <root>
        <mxCell id="0" />
        <mxCell id="1" parent="0" />
        <mxCell id="Qvahahb48yr9GtLQuxvj-1" value="" style="rounded=0;whiteSpace=wrap;html=1;" parent="1" vertex="1">
          <mxGeometry x="240" y="40" width="520" height="620" as="geometry" />
        </mxCell>
        <mxCell id="Qvahahb48yr9GtLQuxvj-3" value="UC_1: &lt;br style=&quot;font-size: 18px;&quot;&gt;Login" style="ellipse;whiteSpace=wrap;html=1;fillColor=#d5e8d4;strokeColor=#82b366;fontSize=18;" parent="1" vertex="1">
          <mxGeometry x="414" y="50" width="166" height="100" as="geometry" />
        </mxCell>
        <mxCell id="Qvahahb48yr9GtLQuxvj-20" value="Employee" style="shape=umlActor;verticalLabelPosition=bottom;labelBackgroundColor=#ffffff;verticalAlign=top;html=1;outlineConnect=0;fontSize=23;fillColor=#d5e8d4;strokeColor=#82b366;" parent="1" vertex="1">
          <mxGeometry x="70" y="260" width="100" height="160" as="geometry" />
        </mxCell>
        <mxCell id="Qvahahb48yr9GtLQuxvj-25" value="" style="endArrow=classic;html=1;fontSize=23;entryX=0;entryY=0.5;entryDx=0;entryDy=0;" parent="1" target="Qvahahb48yr9GtLQuxvj-3" edge="1" source="Qvahahb48yr9GtLQuxvj-20">
          <mxGeometry width="50" height="50" relative="1" as="geometry">
            <mxPoint x="710" y="590" as="sourcePoint" />
            <mxPoint x="510" y="440" as="targetPoint" />
          </mxGeometry>
        </mxCell>
        <mxCell id="LBkUfuuZfX_eGjepryZq-2" value="UC_3: &lt;br style=&quot;font-size: 18px;&quot;&gt;Logout" style="ellipse;whiteSpace=wrap;html=1;fillColor=#d5e8d4;strokeColor=#82b366;fontSize=18;" vertex="1" parent="1">
          <mxGeometry x="417" y="290" width="166" height="100" as="geometry" />
        </mxCell>
        <mxCell id="LBkUfuuZfX_eGjepryZq-3" value="UC_2: &lt;br style=&quot;font-size: 18px&quot;&gt;Settings" style="ellipse;whiteSpace=wrap;html=1;fillColor=#d5e8d4;strokeColor=#82b366;fontSize=18;" vertex="1" parent="1">
          <mxGeometry x="417" y="170" width="166" height="100" as="geometry" />
        </mxCell>
        <mxCell id="LBkUfuuZfX_eGjepryZq-4" value="&lt;span style=&quot;font-size: 18px;&quot;&gt;UC_14: &lt;br style=&quot;font-size: 18px;&quot;&gt;Change Employee Shift&lt;/span&gt;" style="ellipse;whiteSpace=wrap;html=1;fillColor=#d5e8d4;strokeColor=#82b366;fontSize=18;" vertex="1" parent="1">
          <mxGeometry x="417" y="410" width="166" height="100" as="geometry" />
        </mxCell>
        <mxCell id="LBkUfuuZfX_eGjepryZq-5" value="&lt;span style=&quot;font-size: 18px&quot;&gt;UC_15:&lt;/span&gt;&lt;br style=&quot;font-size: 18px&quot;&gt;&lt;span style=&quot;font-size: 18px&quot;&gt;Set Day off in Employee &lt;br&gt;Calendar&lt;/span&gt;" style="ellipse;whiteSpace=wrap;html=1;fillColor=#d5e8d4;strokeColor=#82b366;fontSize=18;" vertex="1" parent="1">
          <mxGeometry x="414" y="530" width="166" height="110" as="geometry" />
        </mxCell>
        <mxCell id="LBkUfuuZfX_eGjepryZq-7" value="" style="endArrow=classic;html=1;fontSize=18;entryX=0;entryY=0.5;entryDx=0;entryDy=0;" edge="1" parent="1" target="LBkUfuuZfX_eGjepryZq-3">
          <mxGeometry width="50" height="50" relative="1" as="geometry">
            <mxPoint x="180" y="330" as="sourcePoint" />
            <mxPoint x="260" y="310" as="targetPoint" />
          </mxGeometry>
        </mxCell>
        <mxCell id="LBkUfuuZfX_eGjepryZq-9" value="" style="endArrow=classic;html=1;fontSize=18;entryX=0;entryY=0.5;entryDx=0;entryDy=0;" edge="1" parent="1" target="LBkUfuuZfX_eGjepryZq-5">
          <mxGeometry width="50" height="50" relative="1" as="geometry">
            <mxPoint x="180" y="420" as="sourcePoint" />
            <mxPoint x="427" y="230" as="targetPoint" />
          </mxGeometry>
        </mxCell>
        <mxCell id="LBkUfuuZfX_eGjepryZq-10" value="" style="endArrow=classic;html=1;fontSize=18;entryX=0;entryY=0.5;entryDx=0;entryDy=0;" edge="1" parent="1" target="LBkUfuuZfX_eGjepryZq-4">
          <mxGeometry width="50" height="50" relative="1" as="geometry">
            <mxPoint x="180" y="390" as="sourcePoint" />
            <mxPoint x="437" y="240" as="targetPoint" />
          </mxGeometry>
        </mxCell>
        <mxCell id="LBkUfuuZfX_eGjepryZq-11" value="" style="endArrow=classic;html=1;fontSize=18;entryX=0;entryY=0.5;entryDx=0;entryDy=0;" edge="1" parent="1" target="LBkUfuuZfX_eGjepryZq-2">
          <mxGeometry width="50" height="50" relative="1" as="geometry">
            <mxPoint x="180" y="360" as="sourcePoint" />
            <mxPoint x="447" y="250" as="targetPoint" />
          </mxGeometry>
        </mxCell>
      </root>
    </mxGraphModel>
  </diagram>
</mxfile>
